REM DIRINDEX 1\3,1\4,1\5,1\6,1\2\7,1\2\8,1\2\9,1\10
REM DIRNAME cjc056,folder01,folder02,folder03,folder04,folder05,folder06,folder07,folder08,folder09
TITLE ""
FILE "2-12 Level 4-637-648.mp3" MP3
  TRACK 01 AUDIO
    TITLE "0:"
    INDEX 01 00:00:00
  TRACK 02 AUDIO
    TITLE "7:cjc056_2188"
    INDEX 01 00:00:07
  TRACK 03 AUDIO
    TITLE "0:"
    INDEX 01 00:01:17
  TRACK 04 AUDIO
    TITLE "8:cjc056_2189"
    INDEX 01 00:01:28
  TRACK 05 AUDIO
    TITLE "0:"
    INDEX 01 00:02:38
  TRACK 06 AUDIO
    TITLE "9:cjc056_2190"
    INDEX 01 00:02:51
  TRACK 07 AUDIO
    TITLE "0:"
    INDEX 01 00:04:27
  TRACK 08 AUDIO
    TITLE "7:cjc056_2191"
    INDEX 01 00:05:03
  TRACK 09 AUDIO
    TITLE "0:"
    INDEX 01 00:06:04
  TRACK 10 AUDIO
    TITLE "8:cjc056_2192"
    INDEX 01 00:06:14
  TRACK 11 AUDIO
    TITLE "0:"
    INDEX 01 00:07:33
  TRACK 12 AUDIO
    TITLE "9:cjc056_2193"
    INDEX 01 00:07:45
  TRACK 13 AUDIO
    TITLE "0:"
    INDEX 01 00:09:00
  TRACK 14 AUDIO
    TITLE "7:cjc056_2194"
    INDEX 01 00:09:53
  TRACK 15 AUDIO
    TITLE "0:"
    INDEX 01 00:10:53
  TRACK 16 AUDIO
    TITLE "8:cjc056_2195"
    INDEX 01 00:10:68
  TRACK 17 AUDIO
    TITLE "0:"
    INDEX 01 00:11:66
  TRACK 18 AUDIO
    TITLE "9:cjc056_2196"
    INDEX 01 00:12:05
  TRACK 19 AUDIO
    TITLE "0:"
    INDEX 01 00:13:47
  TRACK 20 AUDIO
    TITLE "7:cjc056_2197"
    INDEX 01 00:14:23
  TRACK 21 AUDIO
    TITLE "0:"
    INDEX 01 00:15:28
  TRACK 22 AUDIO
    TITLE "8:cjc056_2198"
    INDEX 01 00:15:42
  TRACK 23 AUDIO
    TITLE "0:"
    INDEX 01 00:16:48
  TRACK 24 AUDIO
    TITLE "9:cjc056_2199"
    INDEX 01 00:16:61
  TRACK 25 AUDIO
    TITLE "0:"
    INDEX 01 00:18:35
  TRACK 26 AUDIO
    TITLE "7:cjc056_2200"
    INDEX 01 00:19:11
  TRACK 27 AUDIO
    TITLE "0:"
    INDEX 01 00:20:12
  TRACK 28 AUDIO
    TITLE "8:cjc056_2201"
    INDEX 01 00:20:26
  TRACK 29 AUDIO
    TITLE "0:"
    INDEX 01 00:21:57
  TRACK 30 AUDIO
    TITLE "9:cjc056_2202"
    INDEX 01 00:21:70
  TRACK 31 AUDIO
    TITLE "0:"
    INDEX 01 00:23:40
  TRACK 32 AUDIO
    TITLE "7:cjc056_2203"
    INDEX 01 00:24:25
  TRACK 33 AUDIO
    TITLE "0:"
    INDEX 01 00:25:25
  TRACK 34 AUDIO
    TITLE "8:cjc056_2204"
    INDEX 01 00:25:35
  TRACK 35 AUDIO
    TITLE "0:"
    INDEX 01 00:26:66
  TRACK 36 AUDIO
    TITLE "9:cjc056_2205"
    INDEX 01 00:27:06
  TRACK 37 AUDIO
    TITLE "0:"
    INDEX 01 00:28:62
  TRACK 38 AUDIO
    TITLE "7:cjc056_2206"
    INDEX 01 00:29:40
  TRACK 39 AUDIO
    TITLE "0:"
    INDEX 01 00:30:28
  TRACK 40 AUDIO
    TITLE "8:cjc056_2207"
    INDEX 01 00:30:55
  TRACK 41 AUDIO
    TITLE "0:"
    INDEX 01 00:32:01
  TRACK 42 AUDIO
    TITLE "9:cjc056_2208"
    INDEX 01 00:32:15
  TRACK 43 AUDIO
    TITLE "0:"
    INDEX 01 00:34:28
  TRACK 44 AUDIO
    TITLE "7:cjc056_2209"
    INDEX 01 00:35:04
  TRACK 45 AUDIO
    TITLE "0:"
    INDEX 01 00:36:19
  TRACK 46 AUDIO
    TITLE "8:cjc056_2210"
    INDEX 01 00:36:31
  TRACK 47 AUDIO
    TITLE "0:"
    INDEX 01 00:37:46
  TRACK 48 AUDIO
    TITLE "9:cjc056_2211"
    INDEX 01 00:37:61
  TRACK 49 AUDIO
    TITLE "0:"
    INDEX 01 00:40:07
  TRACK 50 AUDIO
    TITLE "7:cjc056_2212"
    INDEX 01 00:40:60
  TRACK 51 AUDIO
    TITLE "0:"
    INDEX 01 00:41:65
  TRACK 52 AUDIO
    TITLE "8:cjc056_2213"
    INDEX 01 00:42:06
  TRACK 53 AUDIO
    TITLE "0:"
    INDEX 01 00:43:19
  TRACK 54 AUDIO
    TITLE "9:cjc056_2214"
    INDEX 01 00:43:33
  TRACK 55 AUDIO
    TITLE "0:"
    INDEX 01 00:45:10
  TRACK 56 AUDIO
    TITLE "7:cjc056_2215"
    INDEX 01 00:45:61
  TRACK 57 AUDIO
    TITLE "0:"
    INDEX 01 00:46:68
  TRACK 58 AUDIO
    TITLE "8:cjc056_2216"
    INDEX 01 00:47:05
  TRACK 59 AUDIO
    TITLE "0:"
    INDEX 01 00:48:57
  TRACK 60 AUDIO
    TITLE "9:cjc056_2217"
    INDEX 01 00:48:71
  TRACK 61 AUDIO
    TITLE "0:"
    INDEX 01 00:50:46
  TRACK 62 AUDIO
    TITLE "7:cjc056_2218"
    INDEX 01 00:51:22
  TRACK 63 AUDIO
    TITLE "0:"
    INDEX 01 00:52:28
  TRACK 64 AUDIO
    TITLE "8:cjc056_2219"
    INDEX 01 00:52:43
  TRACK 65 AUDIO
    TITLE "0:"
    INDEX 01 00:53:43
  TRACK 66 AUDIO
    TITLE "9:cjc056_2220"
    INDEX 01 00:53:53
  TRACK 67 AUDIO
    TITLE "0:"
    INDEX 01 00:57:13
  TRACK 68 AUDIO
    TITLE "7:cjc056_2221"
    INDEX 01 00:57:66
  TRACK 69 AUDIO
    TITLE "0:"
    INDEX 01 00:58:66
  TRACK 70 AUDIO
    TITLE "8:cjc056_2222"
    INDEX 01 00:59:04
  TRACK 71 AUDIO
    TITLE "0:"
    INDEX 01 01:00:06
  TRACK 72 AUDIO
    TITLE "9:cjc056_2223"
    INDEX 01 01:00:17
  TRACK 73 AUDIO
    TITLE "0:"
    INDEX 01 01:02:44
